<svg xmlns="http://www.w3.org/2000/svg" xml:space="preserve" width="512px" height="512px" version="1.1" style="shape-rendering:geometricPrecision; text-rendering:geometricPrecision; image-rendering:optimizeQuality; fill-rule:evenodd; clip-rule:evenodd" viewBox="0 0 512 512" xmlns:xlink="http://www.w3.org/1999/xlink">
 <defs>
  <style type="text/css">
   
    .fil0 {fill:black}
   
  </style>
 </defs>
 <g id="Layer_x0020_1">
  <metadata id="CorelCorpID_0Corel-Layer"></metadata>
  <path class="fil0" d="M504 512l-76 0c-10,0 -10,-16 0,-16l68 0 0 -68c0,-10 16,-10 16,0l0 76c0,4 -4,8 -8,8zm-253 -22l-196 -113c-3,-1 -5,-4 -5,-7l0 -228c0,-3 2,-5 5,-7l197 -114c3,-1 5,-1 8,0l194 113c4,1 8,2 8,8l0 228c0,3 -2,6 -5,7l-197 115c-3,0 -7,0 -9,-2zm-184 -125l181 105 0 -209 -181 -105 0 209zm197 105l182 -105 0 -210 -182 105 0 210zm173 -328l-181 -105 -181 105 181 105 181 -105zm-353 370l-76 0c-4,0 -8,-4 -8,-8l0 -76c0,-10 16,-10 16,0l0 68 68 0c10,0 10,16 0,16zm412 -428l0 -68 -68 0c-10,0 -10,-16 0,-16l76 0c5,0 8,4 8,8l0 76c0,10 -16,10 -16,0zm-488 8c-4,0 -8,-4 -8,-8l0 -76c0,-4 4,-8 8,-8l76 0c10,0 10,16 0,16l-68 0 0 68c0,4 -4,8 -8,8z" id="id_103" style="fill: rgb(255, 255, 255);"></path>
 </g>
</svg>