<svg xmlns="http://www.w3.org/2000/svg" viewBox="0 0 64 64"><defs><style>.cls-1{fill:#0fbcf9;}</style></defs><g id="Layer_13" data-name="Layer 13"><path class="cls-1" d="M32,3.25h0A28.75,28.75,0,0,0,3.25,32h0A28.75,28.75,0,0,0,32,60.75h0A28.75,28.75,0,0,0,60.75,32h0A28.75,28.75,0,0,0,32,3.25ZM23.59,27.62a.75.75,0,0,1-1.06,0l-3-3a6.45,6.45,0,1,1,9.12-9.12L38,24.84a6.45,6.45,0,0,1-8.37,9.77.76.76,0,0,1-.16-1,.75.75,0,0,1,1.05-.16,5,5,0,0,0,6.42-7.5l-9.3-9.31a4.95,4.95,0,1,0-7,7l3,3A.75.75,0,0,1,23.59,27.62ZM44.44,48.47a6.46,6.46,0,0,1-9.13,0L26,39.16a6.45,6.45,0,0,1,8.41-9.74.76.76,0,0,1,.16,1,.74.74,0,0,1-1,.16,5,5,0,0,0-6.46,7.47l9.31,9.31a4.95,4.95,0,1,0,7-7l-2.92-2.93a.75.75,0,0,1,1.06-1.06l2.93,2.93A6.46,6.46,0,0,1,44.44,48.47Z" id="id_101" style="fill: rgb(51, 51, 51);"></path></g></svg>