<?xml version="1.0" encoding="utf-8"?>
<!-- Generator: Adobe Illustrator 24.2.0, SVG Export Plug-In . SVG Version: 6.00 Build 0)  -->
<svg version="1.1" id="Capa_1" xmlns:serif="http://www.serif.com/"
	 xmlns="http://www.w3.org/2000/svg" xmlns:xlink="http://www.w3.org/1999/xlink" x="0px" y="0px" viewBox="0 0 66.4 65.9"
	 style="enable-background:new 0 0 66.4 65.9;" xml:space="preserve">
<style type="text/css">
	.st0{fill-rule:evenodd;clip-rule:evenodd;fill:#333333;}
</style>
<path class="st0" d="M33.2,1.3c-17.7,0-32,14.3-32,32s14.3,32,32,32s32-14.3,32-32S50.8,1.3,33.2,1.3z M46.2,34.6
	c-4.4,2.6-14.9,8.9-19.5,11.6c-0.4,0.3-1,0.3-1.4,0c-0.4-0.3-0.7-0.7-0.7-1.2c0-5.3,0-17.8,0-23.2c0-0.5,0.3-1,0.7-1.2
	c0.4-0.3,1-0.2,1.4,0c4.5,2.7,15,8.9,19.5,11.6c0.4,0.3,0.7,0.7,0.7,1.2S46.6,34.3,46.2,34.6z"/>
</svg>
