<svg version="1.1" id="Layer_1" xmlns="http://www.w3.org/2000/svg" xmlns:xlink="http://www.w3.org/1999/xlink" x="0px" y="0px" viewBox="0 0 100 100" enable-background="new 0 0 100 100" xml:space="preserve">
<path d="M82.78,16.22H17.22c-0.55,0-1,0.45-1,1v43.63H9.21c-0.55,0-1,0.45-1,1s0.45,1,1,1h7.01v19.92c0,0.55,0.45,1,1,1h65.55
	c0.55,0,1-0.45,1-1V62.86h7.01c0.55,0,1-0.45,1-1s-0.45-1-1-1h-7.01V17.22C83.78,16.67,83.33,16.22,82.78,16.22z M18.22,18.22h63.55
	v42.63H18.22V18.22z M81.78,81.78H18.22V62.86h63.55V81.78z" id="id_101" style="fill: rgb(255, 255, 255);"></path>
<path d="M95,4H76.29c-0.55,0-1,0.45-1,1s0.45,1,1,1H94v17.71c0,0.55,0.45,1,1,1s1-0.45,1-1V5C96,4.45,95.55,4,95,4z" id="id_102" style="fill: rgb(255, 255, 255);"></path>
<path d="M95,75.29c-0.55,0-1,0.45-1,1V94H76.29c-0.55,0-1,0.45-1,1s0.45,1,1,1H95c0.55,0,1-0.45,1-1V76.29
	C96,75.73,95.55,75.29,95,75.29z" id="id_103" style="fill: rgb(255, 255, 255);"></path>
<path d="M5,96h18.71c0.55,0,1-0.45,1-1s-0.45-1-1-1H6V76.29c0-0.55-0.45-1-1-1s-1,0.45-1,1V95C4,95.55,4.45,96,5,96z" id="id_104" style="fill: rgb(255, 255, 255);"></path>
<path d="M5,24.71c0.55,0,1-0.45,1-1V6h17.71c0.55,0,1-0.45,1-1s-0.45-1-1-1H5C4.45,4,4,4.45,4,5v18.71C4,24.27,4.45,24.71,5,24.71z" id="id_105" style="fill: rgb(255, 255, 255);"></path>
</svg>