<?xml version="1.0" encoding="utf-8"?>
<!-- Generator: Adobe Illustrator 24.2.0, SVG Export Plug-In . SVG Version: 6.00 Build 0)  -->
<svg version="1.1" id="Capa_1" xmlns="http://www.w3.org/2000/svg" xmlns:xlink="http://www.w3.org/1999/xlink" x="0px" y="0px"
	 viewBox="0 0 65.9 66.1" style="enable-background:new 0 0 65.9 66.1;" xml:space="preserve">
<style type="text/css">
	.st0{fill:#333333;}
</style>
<g id="_11.AUDIO">
	<rect id="id_101" x="10.8" y="25.5" class="st0" width="6.3" height="15.2"/>
	<polygon id="id_102" class="st0" points="20.5,41.3 36.5,49 36.5,17.3 20.5,24.9 	"/>
	<path id="id_103" class="st0" d="M32.9,0.9C-10,2.3-10,64,32.9,65.3C75.8,64,75.8,2.3,32.9,0.9z M39.9,51.7c0,0.9-0.8,1.7-1.7,1.7
		c-0.2,0-0.5-0.1-0.7-0.2l-19-9.2H9.1c-0.9,0-1.7-0.7-1.7-1.7V23.9c0-0.9,0.8-1.7,1.7-1.7h9.3l19-9.2c0.9-0.4,1.9,0,2.3,0.8
		c0.1,0.2,0.2,0.5,0.2,0.7V51.7z M43.3,37.5c-2.9-0.4-1-2.7-0.9-4.4c0-0.6-0.2-1.3-0.5-1.8c-0.4-0.9,0-1.9,0.8-2.3
		c0.7-0.3,1.6-0.1,2.1,0.5C46.2,31.7,46.4,36.8,43.3,37.5z M47.4,44.6c-0.9,0-1.7-0.8-1.7-1.7c0-0.3,0.1-0.6,0.2-0.8
		c3.1-5.5,3.1-12.3,0-17.8c-0.5-0.8-0.2-1.8,0.6-2.3c0,0,0,0,0,0c0.8-0.5,1.8-0.2,2.3,0.6c0,0,0,0,0,0
		C52.3,28.2,53.3,40.5,47.4,44.6z M54.3,49.2c-0.4,0.8-1.5,1.1-2.3,0.7c-0.8-0.4-1.1-1.5-0.7-2.3c4.9-9.1,4.9-19.9,0-29
		c-0.4-0.8,0-1.8,0.8-2.2c0.8-0.4,1.7-0.1,2.2,0.7C59.7,27.1,59.7,39.1,54.3,49.2z"/>
</g>
</svg>
